<svg style="display: none;">
  <symbol id="blob-1" viewBox="0 0 200 200" xmlns="http://www.w3.org/2000/svg">
    <path fill="currentColor" d="M44.7,-76.4C58.9,-69.2,71.8,-59.1,81.6,-46.6C91.4,-34.1,98.1,-19.2,95.8,-5.3C93.5,8.6,82.2,21.5,70.6,32.2C59,42.9,47.1,51.4,34.8,58.6C22.5,65.8,9.8,71.7,-1.8,74.8C-13.4,77.9,-23.9,78.2,-34.7,73.5C-45.5,68.8,-56.6,59.1,-65.4,47.9C-74.2,36.7,-80.7,24,-82.1,10.6C-83.5,-2.8,-79.8,-17,-71.9,-29.2C-64,-41.4,-51.9,-51.6,-39.2,-59.5C-26.5,-67.4,-13.2,-73,-0.6,-72C12,-71 24,-63.4 30.5,-83.6L44.7,-76.4Z" transform="translate(100 100)" />
  </symbol>
  <symbol id="blob-2" viewBox="0 0 200 200" xmlns="http://www.w3.org/2000/svg">
    <path fill="currentColor" d="M41.4,-72C53.7,-64.7,63.6,-53.4,70.9,-40.8C78.2,-28.2,82.9,-14.1,81.3,-0.9C79.7,12.3,71.8,24.6,63.2,35.3C54.6,46,45.3,55.1,34.3,62.3C23.3,69.5,10.6,74.8,-0.7,76C-12,77.2,-24.1,74.3,-34.7,67.5C-45.3,60.7,-54.5,50,-61.8,38.1C-69.1,26.2,-74.5,13.1,-75.1,-0.3C-75.7,-13.7,-71.5,-27.4,-63.3,-38.4C-55.1,-49.4,-42.9,-57.7,-30.8,-65.1C-18.7,-72.5,-6.7,-79,5.7,-88.9L41.4,-72Z" transform="translate(100 100)" />
  </symbol>
</svg>
